<?xml version="1.0" standalone="no"?><svg xmlns="http://www.w3.org/2000/svg" viewBox="0 0 1440 320"><path fill="#00AEEF" fill-opacity="1" d="M0,288L14.1,250.7C28.2,213,56,139,85,96C112.9,53,141,43,169,80C197.6,117,226,203,254,245.3C282.4,288,311,288,339,245.3C367.1,203,395,117,424,101.3C451.8,85,480,139,508,170.7C536.5,203,565,213,593,202.7C621.2,192,649,160,678,154.7C705.9,149,734,171,762,181.3C790.6,192,819,192,847,197.3C875.3,203,904,213,932,213.3C960,213,988,203,1016,192C1044.7,181,1073,171,1101,144C1129.4,117,1158,75,1186,53.3C1214.1,32,1242,32,1271,53.3C1298.8,75,1327,117,1355,149.3C1383.5,181,1412,203,1426,213.3L1440,224L1440,320L1425.9,320C1411.8,320,1384,320,1355,320C1327.1,320,1299,320,1271,320C1242.4,320,1214,320,1186,320C1157.6,320,1129,320,1101,320C1072.9,320,1045,320,1016,320C988.2,320,960,320,932,320C903.5,320,875,320,847,320C818.8,320,791,320,762,320C734.1,320,706,320,678,320C649.4,320,621,320,593,320C564.7,320,536,320,508,320C480,320,452,320,424,320C395.3,320,367,320,339,320C310.6,320,282,320,254,320C225.9,320,198,320,169,320C141.2,320,113,320,85,320C56.5,320,28,320,14,320L0,320Z"></path></svg>